<svg width="16" height="12" viewBox="0 0 16 12" fill="none" xmlns="http://www.w3.org/2000/svg">
<path d="M7.99999 5.882L0.00299072 1.884C0.0325948 1.37444 0.255899 0.895488 0.627168 0.545227C0.998438 0.194965 1.48958 -9.35456e-05 1.99999 3.36553e-08H14C14.5104 -9.35456e-05 15.0015 0.194965 15.3728 0.545227C15.7441 0.895488 15.9674 1.37444 15.997 1.884L7.99999 5.882Z" fill="#C09E6B"/>
<path d="M8 8.11801L16 4.11801V10C16 10.5304 15.7893 11.0392 15.4142 11.4142C15.0391 11.7893 14.5304 12 14 12H2C1.46957 12 0.960859 11.7893 0.585786 11.4142C0.210714 11.0392 0 10.5304 0 10V4.11801L8 8.11801Z" fill="#C09E6B"/>
</svg>
